<svg width="132" height="34" viewBox="0 0 132 34" fill="none" xmlns="http://www.w3.org/2000/svg">
<path d="M8.6 26.28C5.88 26.28 3.65333 25.72 1.92 24.6C1.44 24.3067 1.09333 24 0.88 23.68C0.693333 23.36 0.6 23 0.6 22.6C0.6 22.1733 0.72 21.8133 0.96 21.52C1.2 21.2267 1.50667 21.08 1.88 21.08C2.22667 21.08 2.77333 21.2933 3.52 21.72C4.32 22.1467 5.09333 22.4933 5.84 22.76C6.61333 23.0267 7.57333 23.16 8.72 23.16C10 23.16 11 22.9333 11.72 22.48C12.44 22.0267 12.8 21.3867 12.8 20.56C12.8 20.0267 12.6533 19.6 12.36 19.28C12.0933 18.96 11.6133 18.68 10.92 18.44C10.2267 18.1733 9.2 17.8933 7.84 17.6C5.49333 17.0933 3.8 16.4133 2.76 15.56C1.74667 14.68 1.24 13.4933 1.24 12C1.24 10.8533 1.57333 9.82667 2.24 8.92C2.90667 7.98667 3.82667 7.26667 5 6.76C6.17333 6.25333 7.50667 6 9 6C10.0667 6 11.1067 6.14667 12.12 6.44C13.1333 6.70667 14.0267 7.10667 14.8 7.64C15.68 8.22667 16.12 8.90667 16.12 9.68C16.12 10.1067 15.9867 10.4667 15.72 10.76C15.48 11.0533 15.1867 11.2 14.84 11.2C14.6 11.2 14.36 11.1467 14.12 11.04C13.88 10.9333 13.56 10.76 13.16 10.52C12.44 10.0933 11.76 9.76 11.12 9.52C10.5067 9.28 9.73333 9.16 8.8 9.16C7.68 9.16 6.77333 9.4 6.08 9.88C5.41333 10.36 5.08 11.0133 5.08 11.84C5.08 12.5867 5.38667 13.1733 6 13.6C6.64 14 7.82667 14.3867 9.56 14.76C11.3467 15.1333 12.7467 15.56 13.76 16.04C14.7733 16.52 15.4933 17.12 15.92 17.84C16.3733 18.5333 16.6 19.4267 16.6 20.52C16.6 22.2533 15.8667 23.6533 14.4 24.72C12.96 25.76 11.0267 26.28 8.6 26.28ZM34.6644 7.28C34.8244 6.88 35.051 6.58667 35.3444 6.4C35.6644 6.21333 35.9977 6.12 36.3444 6.12C36.851 6.12 37.291 6.29333 37.6644 6.64C38.0644 6.98667 38.2644 7.4 38.2644 7.88C38.2644 8.14667 38.211 8.4 38.1044 8.64L26.9844 32.24C26.8244 32.6133 26.5844 32.8933 26.2644 33.08C25.971 33.2933 25.651 33.4 25.3044 33.4C24.8244 33.4 24.3844 33.24 23.9844 32.92C23.611 32.6 23.4244 32.2 23.4244 31.72C23.4244 31.5067 23.491 31.24 23.6244 30.92L26.3844 25.04L18.6644 8.64C18.5577 8.42667 18.5044 8.18667 18.5044 7.92C18.5044 7.41333 18.7177 6.98667 19.1444 6.64C19.571 6.29333 20.051 6.12 20.5844 6.12C21.3844 6.12 21.9577 6.49333 22.3044 7.24L28.5044 21L34.6644 7.28ZM63.9656 6C68.339 6 70.5256 8.62667 70.5256 13.88V24.28C70.5256 24.8933 70.339 25.3733 69.9656 25.72C69.5923 26.04 69.099 26.2 68.4856 26.2C67.899 26.2 67.419 26.04 67.0456 25.72C66.6723 25.3733 66.4856 24.8933 66.4856 24.28V13.92C66.4856 12.2933 66.1923 11.12 65.6056 10.4C65.019 9.65333 64.099 9.28 62.8456 9.28C61.379 9.28 60.219 9.78667 59.3656 10.8C58.5123 11.7867 58.0856 13.1467 58.0856 14.88V24.28C58.0856 24.8933 57.899 25.3733 57.5256 25.72C57.1523 26.04 56.659 26.2 56.0456 26.2C55.459 26.2 54.979 26.04 54.6056 25.72C54.2323 25.3733 54.0456 24.8933 54.0456 24.28V13.92C54.0456 12.2933 53.7523 11.12 53.1656 10.4C52.579 9.65333 51.659 9.28 50.4056 9.28C48.939 9.28 47.7656 9.78667 46.8856 10.8C46.0323 11.7867 45.6056 13.1467 45.6056 14.88V24.28C45.6056 24.8933 45.419 25.3733 45.0456 25.72C44.6723 26.04 44.1923 26.2 43.6056 26.2C43.019 26.2 42.5256 26.04 42.1256 25.72C41.7523 25.3733 41.5656 24.8933 41.5656 24.28V8C41.5656 7.41333 41.7656 6.94667 42.1656 6.6C42.5656 6.25333 43.0456 6.08 43.6056 6.08C44.1656 6.08 44.619 6.25333 44.9656 6.6C45.339 6.92 45.5256 7.37333 45.5256 7.96V9.44C46.1123 8.32 46.9256 7.46667 47.9656 6.88C49.0056 6.29333 50.2056 6 51.5656 6C53.059 6 54.2856 6.30667 55.2456 6.92C56.2323 7.53333 56.9656 8.48 57.4456 9.76C58.0323 8.61333 58.899 7.70667 60.0456 7.04C61.1923 6.34667 62.499 6 63.9656 6ZM86.5378 6C88.2178 6 89.7111 6.42667 91.0178 7.28C92.3511 8.13333 93.3778 9.33333 94.0978 10.88C94.8445 12.4267 95.2178 14.2133 95.2178 16.24C95.2178 18.24 94.8578 20 94.1378 21.52C93.4178 23.04 92.3911 24.2133 91.0578 25.04C89.7511 25.8667 88.2445 26.28 86.5378 26.28C85.0711 26.28 83.7778 25.9733 82.6578 25.36C81.5378 24.72 80.6845 23.8133 80.0978 22.64V31.56C80.0978 32.12 79.9111 32.56 79.5378 32.88C79.1911 33.2267 78.7245 33.4 78.1378 33.4C77.5245 33.4 77.0178 33.2267 76.6178 32.88C76.2445 32.5333 76.0578 32.0667 76.0578 31.48V8.04C76.0578 7.45333 76.2445 6.98667 76.6178 6.64C76.9911 6.26667 77.4845 6.08 78.0978 6.08C78.6845 6.08 79.1645 6.26667 79.5378 6.64C79.9111 6.98667 80.0978 7.45333 80.0978 8.04V9.68C80.6845 8.50667 81.5378 7.6 82.6578 6.96C83.7778 6.32 85.0711 6 86.5378 6ZM85.5778 23.08C87.3378 23.08 88.6978 22.4933 89.6578 21.32C90.6178 20.12 91.0978 18.4267 91.0978 16.24C91.0978 14.0267 90.6045 12.3067 89.6178 11.08C88.6578 9.85333 87.3111 9.24 85.5778 9.24C83.8178 9.24 82.4578 9.84 81.4978 11.04C80.5645 12.24 80.0978 13.9467 80.0978 16.16C80.0978 18.3733 80.5645 20.08 81.4978 21.28C82.4578 22.48 83.8178 23.08 85.5778 23.08ZM109.173 23.12C109.759 23.1733 110.173 23.3333 110.413 23.6C110.679 23.84 110.813 24.1867 110.813 24.64C110.813 25.1733 110.599 25.5867 110.173 25.88C109.773 26.1467 109.173 26.2533 108.373 26.2L107.293 26.12C105.133 25.96 103.519 25.3067 102.453 24.16C101.386 22.9867 100.853 21.2667 100.853 19V9.6H98.4525C97.2792 9.6 96.6925 9.08 96.6925 8.04C96.6925 7.56 96.8392 7.18667 97.1325 6.92C97.4525 6.62667 97.8925 6.48 98.4525 6.48H100.853V2.36C100.853 1.74667 101.026 1.26667 101.373 0.919999C101.746 0.573332 102.239 0.399998 102.853 0.399998C103.466 0.399998 103.959 0.573332 104.333 0.919999C104.706 1.26667 104.893 1.74667 104.893 2.36V6.48H108.853C109.413 6.48 109.839 6.62667 110.133 6.92C110.453 7.18667 110.613 7.56 110.613 8.04C110.613 8.54667 110.453 8.93333 110.133 9.2C109.839 9.46667 109.413 9.6 108.853 9.6H104.893V19.28C104.893 20.5333 105.146 21.4533 105.653 22.04C106.186 22.6267 106.986 22.96 108.053 23.04L109.173 23.12ZM122.194 26.28C120.274 26.28 118.581 25.8667 117.114 25.04C115.674 24.2133 114.554 23.04 113.754 21.52C112.981 19.9733 112.594 18.1867 112.594 16.16C112.594 14.1067 112.981 12.32 113.754 10.8C114.554 9.25333 115.674 8.06667 117.114 7.24C118.581 6.41333 120.274 6 122.194 6C124.114 6 125.794 6.41333 127.234 7.24C128.701 8.06667 129.821 9.25333 130.594 10.8C131.394 12.32 131.794 14.1067 131.794 16.16C131.794 18.1867 131.394 19.9733 130.594 21.52C129.821 23.04 128.701 24.2133 127.234 25.04C125.794 25.8667 124.114 26.28 122.194 26.28ZM122.194 23.08C123.981 23.08 125.341 22.4933 126.274 21.32C127.234 20.1467 127.714 18.4267 127.714 16.16C127.714 13.92 127.234 12.2133 126.274 11.04C125.314 9.84 123.954 9.24 122.194 9.24C120.434 9.24 119.074 9.84 118.114 11.04C117.154 12.2133 116.674 13.92 116.674 16.16C116.674 18.4267 117.141 20.1467 118.074 21.32C119.034 22.4933 120.407 23.08 122.194 23.08Z" fill="#213C7F"/>
</svg>
